<svg width="170" height="121" viewBox="0 0 170 121" fill="none" xmlns="http://www.w3.org/2000/svg">
<g filter="url(#filter0_bi_46_3)">
<path d="M0.765343 37.084C1.30292 20.2796 14.8505 6.8092 31.6577 6.36755L83.6995 5L137.42 6.39697C153.89 6.82527 167.294 19.7835 168.28 36.2298L169.696 59.8595L168.256 84.2767C167.285 100.754 153.847 113.737 137.346 114.141L84.4173 115.437L31.6918 114.155C14.8704 113.746 1.29079 100.282 0.738065 83.4648L0 61.0084L0.765343 37.084Z" fill="url(#paint0_linear_46_3)"/>
<path d="M1.75679 37.1158C2.27756 20.8365 15.4017 7.78701 31.6837 7.35915L83.6996 5.99229L137.394 7.38858C153.349 7.8035 166.335 20.3568 167.29 36.2892L168.702 59.86L167.266 84.2183C166.325 100.181 153.307 112.758 137.322 113.15L84.4171 114.445L31.7159 113.164C15.4202 112.767 2.26493 99.724 1.72948 83.4323L0.992471 61.008L1.75679 37.1158Z" stroke="white" stroke-width="1.9839"/>
</g>
<g filter="url(#filter1_bd_46_3)">
<path d="M103.75 54.4913C108.159 57.0367 108.159 63.4 103.75 65.9454L80.3568 79.4514C75.9482 81.9967 70.4374 78.8151 70.4374 73.7244L70.4374 46.7123C70.4374 41.6217 75.9482 38.44 80.3569 40.9853L103.75 54.4913Z" fill="url(#paint1_linear_46_3)"/>
<path d="M103.254 55.3504C107.001 57.5139 107.001 62.9228 103.254 65.0863L79.8609 78.5923C76.1135 80.7559 71.4293 78.0515 71.4293 73.7244L71.4293 46.7123C71.4293 42.3853 76.1135 39.6808 79.8609 41.8444L103.254 55.3504Z" stroke="white" stroke-width="1.9839"/>
</g>
<defs>
<filter id="filter0_bi_46_3" x="-9.9195" y="-4.9195" width="189.535" height="130.276" filterUnits="userSpaceOnUse" color-interpolation-filters="sRGB">
<feFlood flood-opacity="0" result="BackgroundImageFix"/>
<feGaussianBlur in="BackgroundImageFix" stdDeviation="4.95975"/>
<feComposite in2="SourceAlpha" operator="in" result="effect1_backgroundBlur_46_3"/>
<feBlend mode="normal" in="SourceGraphic" in2="effect1_backgroundBlur_46_3" result="shape"/>
<feColorMatrix in="SourceAlpha" type="matrix" values="0 0 0 0 0 0 0 0 0 0 0 0 0 0 0 0 0 0 127 0" result="hardAlpha"/>
<feOffset/>
<feGaussianBlur stdDeviation="19.839"/>
<feComposite in2="hardAlpha" operator="arithmetic" k2="-1" k3="1"/>
<feColorMatrix type="matrix" values="0 0 0 0 1 0 0 0 0 1 0 0 0 0 1 0 0 0 0.25 0"/>
<feBlend mode="normal" in2="shape" result="effect2_innerShadow_46_3"/>
</filter>
<filter id="filter1_bd_46_3" x="30.7593" y="0.411606" width="115.975" height="119.614" filterUnits="userSpaceOnUse" color-interpolation-filters="sRGB">
<feFlood flood-opacity="0" result="BackgroundImageFix"/>
<feGaussianBlur in="BackgroundImageFix" stdDeviation="8.26625"/>
<feComposite in2="SourceAlpha" operator="in" result="effect1_backgroundBlur_46_3"/>
<feColorMatrix in="SourceAlpha" type="matrix" values="0 0 0 0 0 0 0 0 0 0 0 0 0 0 0 0 0 0 127 0" result="hardAlpha"/>
<feOffset/>
<feGaussianBlur stdDeviation="19.839"/>
<feColorMatrix type="matrix" values="0 0 0 0 0 0 0 0 0 0 0 0 0 0 0 0 0 0 0.25 0"/>
<feBlend mode="normal" in2="effect1_backgroundBlur_46_3" result="effect2_dropShadow_46_3"/>
<feBlend mode="normal" in="SourceGraphic" in2="effect2_dropShadow_46_3" result="shape"/>
</filter>
<linearGradient id="paint0_linear_46_3" x1="4.59414" y1="11.1753" x2="165.704" y2="111.658" gradientUnits="userSpaceOnUse">
<stop offset="1" stop-color="#BE0000" stop-opacity="0.1"/>
</linearGradient>
<linearGradient id="paint1_linear_46_3" x1="72.4549" y1="36.873" x2="96.6648" y2="75.2055" gradientUnits="userSpaceOnUse">
<stop stop-color="white"/>
</linearGradient>
</defs>
</svg>
